<?xml version="1.0" encoding="UTF-8" standalone="no"?>
<!-- Created with Inkscape (http://www.inkscape.org/) -->

<svg
   width="1024"
   height="768"
   viewBox="0 0 270.93333 203.2"
   version="1.1"
   id="svg1"
   inkscape:version="1.4 (86a8ad7, 2024-10-11)"
   sodipodi:docname="ptutorial.svg"
   inkscape:export-batch-path="C:\Users\clabr\Documents\Processing\sketches\Dinoblaster-DX\main\data\_art\ptutorial"
   inkscape:export-batch-name="ptero"
   xmlns:inkscape="http://www.inkscape.org/namespaces/inkscape"
   xmlns:sodipodi="http://sodipodi.sourceforge.net/DTD/sodipodi-0.dtd"
   xmlns="http://www.w3.org/2000/svg"
   xmlns:svg="http://www.w3.org/2000/svg">
  <sodipodi:namedview
     id="namedview1"
     pagecolor="#888888"
     bordercolor="#000000"
     borderopacity="0.25"
     inkscape:showpageshadow="2"
     inkscape:pageopacity="0.0"
     inkscape:pagecheckerboard="0"
     inkscape:deskcolor="#d1d1d1"
     inkscape:document-units="px"
     inkscape:zoom="0.82224937"
     inkscape:cx="2347.8279"
     inkscape:cy="388.56825"
     inkscape:window-width="1920"
     inkscape:window-height="1009"
     inkscape:window-x="-8"
     inkscape:window-y="-8"
     inkscape:window-maximized="1"
     inkscape:current-layer="layer1"
     inkscape:export-bgcolor="#4c4c4c00">
    <inkscape:page
       x="0"
       y="0"
       width="270.93332"
       height="203.2"
       id="page1"
       margin="0"
       bleed="0" />
    <inkscape:page
       x="280.93332"
       y="0"
       width="21.381453"
       height="17.499481"
       id="page3"
       margin="0"
       bleed="0"
       inkscape:label="idle" />
    <inkscape:page
       x="447.14911"
       y="1.1832427"
       width="347.84409"
       height="203.2"
       id="page9"
       margin="0"
       bleed="0"
       inkscape:label="earth"
       inkscape:export-filename="ptutorial-earth.png"
       inkscape:export-xdpi="96"
       inkscape:export-ydpi="96" />
  </sodipodi:namedview>
  <defs
     id="defs1">
    <clipPath
       clipPathUnits="userSpaceOnUse"
       id="clipEmfPath1">
      <path
         d="M 103.33333,54 108,47.666667 100.66667,29 l 10,7.666667 10,5 14,13.333333 -23,-3.666667 L 104.33333,61 l -7.666663,-3.333333 10.000003,13.666666 5,2.666667 -5.33334,-0.666667 -13.666663,14.333334 -22,4 -13.333334,-2.333334 9.333334,-8.666666 5,-11.333334 L 59.666667,61 48,58.666667 40.666667,69 l -2,1 L 42.333333,58 30,64.666667 28,66 38,54.666667 l 12.333333,-7 L 73,43.333333 95,51 l 8.33333,3 M 159.66667,5 H -0.33333333 V 114.33333 H 159.66667 V 5"
         id="path1" />
    </clipPath>
    <clipPath
       clipPathUnits="userSpaceOnUse"
       id="clipEmfPath2">
      <path
         d="M 100.66667,29 108,47.666667 103.33333,54 95,51 73,43.333333 50.333333,47.666667 38,54.666667 28,66 30,64.666667 42.333333,58 l -3.666666,12 2,-1 L 48,58.666667 59.666667,61 l 12,8.333333 -5,11.333334 -9.333334,8.666666 13.333334,2.333334 22,-4 L 106.33333,73.333333 111.66667,74 l -5,-2.666667 L 96.666667,57.666667 104.33333,61 l 7.33334,-9.666667 23,3.666667 -14,-13.333333 -10,-5 -10,-7.666667"
         id="path2" />
    </clipPath>
    <clipPath
       clipPathUnits="userSpaceOnUse"
       id="clipEmfPath3">
      <path
         d="M 444.66667,54 449.33333,47.666667 442,29 l 10,7.666667 10,5 L 476,55 453,51.333333 445.66667,61 438,57.666667 448,71.333333 453,74 l -5.33333,-0.666667 -25,33.333337 L 408,80.666667 l 5,-11.333334 -12,-13.666666 -11.66667,3 L 382,69 l -2,1 3.66667,-12 -12.33334,6.666667 -2,1.333333 10,-11.333333 12.33334,-7 22.66666,-4.333334 22,7.666667 8.33334,3 M 501,5 H 341 V 130.33333 H 501 V 5"
         id="path3" />
    </clipPath>
    <clipPath
       clipPathUnits="userSpaceOnUse"
       id="clipEmfPath4">
      <path
         d="M 442,29 449.33333,47.666667 444.66667,54 l -8.33334,-3 -22,-7.666667 -22.66666,4.333334 -12.33334,7 -10,11.333333 2,-1.333333 L 383.66667,58 380,70 l 2,-1 7.33333,-10.333333 11.66667,-3 12,13.666666 -5,11.333334 14.66667,26.000003 25,-33.333337 L 453,74 448,71.333333 438,57.666667 445.66667,61 453,51.333333 476,55 462,41.666667 l -10,-5 L 442,29"
         id="path4" />
    </clipPath>
    <clipPath
       clipPathUnits="userSpaceOnUse"
       id="clipEmfPath5">
      <path
         d="m 710.66667,66 10,-11.333333 12.33333,-7 L 752.33333,44 764,23 777.33333,49 777.66667,51 786,54 790.66667,47.666667 783.33333,29 l 10,7.666667 10,5 14,13.333333 -23,-3.666667 L 787,61 l -7.66667,-3.333333 -8.66666,5.666666 -28.33334,-7.666666 -11.66666,3 L 723.33333,69 l -2,1 L 725,58 712.66667,64.666667 710.66667,66 M 842.33333,-0.33333333 h -160 V 93 h 160 V -0.33333333"
         id="path5" />
    </clipPath>
    <clipPath
       clipPathUnits="userSpaceOnUse"
       id="clipEmfPath6">
      <path
         d="M 764,23 752.33333,44 733,47.666667 l -12.33333,7 -10,11.333333 2,-1.333333 L 725,58 l -3.66667,12 2,-1 7.33334,-10.333333 11.66666,-3 28.33334,7.666666 8.66666,-5.666666 L 787,61 l 7.33333,-9.666667 23,3.666667 -14,-13.333333 -10,-5 -10,-7.666667 7.33334,18.666667 L 786,54 777.66667,51 777.33333,49 764,23"
         id="path6" />
    </clipPath>
    <pattern
       id="EMFhbasepattern"
       patternUnits="userSpaceOnUse"
       width="6"
       height="6"
       x="0"
       y="0" />
  </defs>
  <g
     inkscape:label="Layer 1"
     inkscape:groupmode="layer"
     id="layer1"
     transform="translate(-26.822766,46.371579)">
    <g
       id="g6"
       transform="matrix(1.0510481,0,0,1.0510481,-165.31481,-221.63708)"
       inkscape:label="earth"
       style="display:inline;isolation:isolate">
      <path
         d="m 262.382,226.504 50.349,23.118 39.406,38.946 23.71,50.074 5.153,55.163 -14.024,53.599 -31.511,45.57 -45.195,32.045 -53.431,14.654 -55.22,-4.504 -50.35,-23.118 L 91.863,473.106 68.153,423.031 63,367.868 l 14.025,-53.6 31.51,-45.569 45.197,-32.045 53.43,-14.654 z"
         fill="none"
         vector-effect="non-scaling-stroke"
         stroke-width="2"
         stroke="#ffffff"
         stroke-linejoin="miter"
         stroke-linecap="butt"
         stroke-miterlimit="3"
         id="path1-5" />
      <path
         d="m 199.834,224.008 15.122,2.782 3.487,7.48 -9.972,8.383 -4.977,-4.655 -1.07,-0.278 -9.075,1.385 -5.298,-2.034 -12.531,9.551 -0.383,6.504 4.946,2.64 5.953,-3.443 2.653,-3.624 12.641,-4.772 3.19,1.205 3.506,3.462 1.224,4.811 -2.213,3.765 -0.198,2.027 1.972,0.055 1.348,-0.482 0.284,0.823 -2.219,8.481 -14.411,1.57 -5.552,3.988 -23.85,5.681 -4.21,-0.611 -17.768,9.761 -2.454,15.604 -2.3,1.143 -1.7,-1.829 -1.953,-6.313 -4.934,-6.237 -15.727,0.822 -10.819,9.235 -1.236,11.29 6.2,2.942 2.9,-0.606 3.381,1.361 0.094,3.338 -3.642,3.344 0.909,6.572 -0.217,11.809 4.117,5.384 3.697,2.145 17.681,-5.014 41.037,26.398 10.794,18.886 19.864,9.675 2.615,8.797 -26.941,38.503 -7.043,2.219 -32.06,34.237 -4.649,11.894 2.887,17.23 -4.166,-1.669 -11.877,-12.395 -4.939,-80.77 -15.759,-16.673 -2.354,-20.618 11.9,-24.957 -3.067,-4.884 -5.088,-3.839 -2.343,-8.562 -4.76,-5.15 -0.421,-2.912 0.693,-3.987 -10.856,-6.713 -3.881,-16.896"
         fill="none"
         vector-effect="non-scaling-stroke"
         stroke-width="2"
         stroke="#ffffff"
         stroke-linejoin="miter"
         stroke-linecap="butt"
         stroke-miterlimit="3"
         id="path2-2" />
      <path
         d="m 315.335,507.354 h -0.074 l -10.262,-0.071 -0.73,-3.39 7.92,-17.978 -0.217,-16.485 11.783,-21.324 0.878,-10.653 -1.187,-3.283 0.031,-14.986 1.849,-4.902 0.049,-10.145 -2.491,-1.224 -1.274,0.569 -35.788,-6.776 -14.658,-12.395 -3.264,-7.889 4.34,-33.859 20.778,-19.833 12.012,-3.412 28.085,2.814 16.395,11.04 12.457,0.668 -0.457,-2.801 -5.094,-8.123 -5.36,-1.632 -5.533,-5.076 -0.625,-1.83 -7.387,-2.584 -3.71,1.304 -3.06,0.57 -2.04,-2.832 -0.278,-3.827 -3.969,0.044 -9.471,-5.632 -1.96,11.684 -7.406,2.096 -8,-2.208 -8.42,-13.037 7.388,-9.799 16.933,-3.951 -1.274,-11.251 -4.939,-0.674 -13.626,-9.798 -0.908,-11.932 0.191,-0.556 9.242,-1.039 12.096,0.207"
         fill="none"
         vector-effect="non-scaling-stroke"
         stroke-width="2"
         stroke="#ffffff"
         stroke-linejoin="miter"
         stroke-linecap="butt"
         stroke-miterlimit="3"
         id="path3-7" />
      <path
         d="m 286.492,271.455 -4.134,3.216 2.2,3.883 4.542,-2.087 1.316,6.464 4.568,3.528 6.598,-3.604 -12.821,-16.455 -2.769,0.344 -0.282,2.024 z"
         fill="none"
         vector-effect="non-scaling-stroke"
         stroke-width="2"
         stroke="#ffffff"
         stroke-linejoin="miter"
         stroke-linecap="butt"
         stroke-miterlimit="3"
         id="path4-6" />
      <path
         d="m 126.839,315.613 20.493,2.837 0.99,-0.829 -0.761,-1.072 -12.775,-4.214 z"
         fill="none"
         vector-effect="non-scaling-stroke"
         stroke-width="2"
         stroke="#ffffff"
         stroke-linejoin="miter"
         stroke-linecap="butt"
         stroke-miterlimit="3"
         id="path5-1" />
      <path
         d="m 142.547,327.265 13.609,2.066 0.931,-3.552 -5.782,-2.936 z"
         fill="none"
         vector-effect="non-scaling-stroke"
         stroke-width="2"
         stroke="#ffffff"
         stroke-linejoin="miter"
         stroke-linecap="butt"
         stroke-miterlimit="3"
         id="path6-4" />
    </g>
    <g
       id="g16"
       transform="matrix(1.0510481,0,0,1.0510481,413.29086,-219.2706)"
       inkscape:label="earth"
       style="display:none;isolation:isolate">
      <path
         d="m 262.382,226.504 50.349,23.118 39.406,38.946 23.71,50.074 5.153,55.163 -14.024,53.599 -31.511,45.57 -45.195,32.045 -53.431,14.654 -55.22,-4.504 -50.35,-23.118 L 91.863,473.106 68.153,423.031 63,367.868 l 14.025,-53.6 31.51,-45.569 45.197,-32.045 53.43,-14.654 z"
         fill="none"
         vector-effect="non-scaling-stroke"
         stroke-width="2"
         stroke="#ffffff"
         stroke-linejoin="miter"
         stroke-linecap="butt"
         stroke-miterlimit="3"
         id="path9"
         inkscape:label="circumference" />
      <path
         d="m 199.834,224.008 15.122,2.782 3.487,7.48 -9.972,8.383 -4.977,-4.655 -1.07,-0.278 -9.075,1.385 -5.298,-2.034 -12.531,9.551 -0.383,6.504 4.946,2.64 5.953,-3.443 2.653,-3.624 12.641,-4.772 3.19,1.205 3.506,3.462 1.224,4.811 -2.213,3.765 -0.198,2.027 1.972,0.055 1.348,-0.482 0.284,0.823 -2.219,8.481 -14.411,1.57 -5.552,3.988 -23.85,5.681 -4.21,-0.611 -17.768,9.761 -2.454,15.604 -2.3,1.143 -1.7,-1.829 -1.953,-6.313 -4.934,-6.237 -15.727,0.822 -10.819,9.235 -1.236,11.29 6.2,2.942 2.9,-0.606 3.381,1.361 0.094,3.338 -3.642,3.344 0.909,6.572 -0.217,11.809 4.117,5.384 3.697,2.145 17.681,-5.014 41.037,26.398 10.794,18.886 19.864,9.675 2.615,8.797 -26.941,38.503 -7.043,2.219 -32.06,34.237 -4.649,11.894 2.887,17.23 -4.166,-1.669 -11.877,-12.395 -4.939,-80.77 -15.759,-16.673 -2.354,-20.618 11.9,-24.957 -3.067,-4.884 -5.088,-3.839 -2.343,-8.562 -4.76,-5.15 -0.421,-2.912 0.693,-3.987 -10.856,-6.713 -3.881,-16.896"
         fill="none"
         vector-effect="non-scaling-stroke"
         stroke-width="2"
         stroke="#ffffff"
         stroke-linejoin="miter"
         stroke-linecap="butt"
         stroke-miterlimit="3"
         id="path11"
         style="display:none" />
      <path
         d="m 315.335,507.354 h -0.074 l -10.262,-0.071 -0.73,-3.39 7.92,-17.978 -0.217,-16.485 11.783,-21.324 0.878,-10.653 -1.187,-3.283 0.031,-14.986 1.849,-4.902 0.049,-10.145 -2.491,-1.224 -1.274,0.569 -35.788,-6.776 -14.658,-12.395 -3.264,-7.889 4.34,-33.859 20.778,-19.833 12.012,-3.412 28.085,2.814 16.395,11.04 12.457,0.668 -0.457,-2.801 -5.094,-8.123 -5.36,-1.632 -5.533,-5.076 -0.625,-1.83 -7.387,-2.584 -3.71,1.304 -3.06,0.57 -2.04,-2.832 -0.278,-3.827 -3.969,0.044 -9.471,-5.632 -1.96,11.684 -7.406,2.096 -8,-2.208 -8.42,-13.037 7.388,-9.799 16.933,-3.951 -1.274,-11.251 -4.939,-0.674 -13.626,-9.798 -0.908,-11.932 0.191,-0.556 9.242,-1.039 12.096,0.207"
         fill="none"
         vector-effect="non-scaling-stroke"
         stroke-width="2"
         stroke="#ffffff"
         stroke-linejoin="miter"
         stroke-linecap="butt"
         stroke-miterlimit="3"
         id="path12"
         style="display:none" />
      <path
         d="m 286.492,271.455 -4.134,3.216 2.2,3.883 4.542,-2.087 1.316,6.464 4.568,3.528 6.598,-3.604 -12.821,-16.455 -2.769,0.344 -0.282,2.024 z"
         fill="none"
         vector-effect="non-scaling-stroke"
         stroke-width="2"
         stroke="#ffffff"
         stroke-linejoin="miter"
         stroke-linecap="butt"
         stroke-miterlimit="3"
         id="path14"
         style="display:none" />
      <path
         d="m 126.839,315.613 20.493,2.837 0.99,-0.829 -0.761,-1.072 -12.775,-4.214 z"
         fill="none"
         vector-effect="non-scaling-stroke"
         stroke-width="2"
         stroke="#ffffff"
         stroke-linejoin="miter"
         stroke-linecap="butt"
         stroke-miterlimit="3"
         id="path15"
         style="display:none" />
      <path
         d="m 142.547,327.265 13.609,2.066 0.931,-3.552 -5.782,-2.936 z"
         fill="none"
         vector-effect="non-scaling-stroke"
         stroke-width="2"
         stroke="#ffffff"
         stroke-linejoin="miter"
         stroke-linecap="butt"
         stroke-miterlimit="3"
         id="path16"
         style="display:none" />
    </g>
    <g
       id="g19"
       inkscape:label="idle"
       transform="matrix(0.6384717,0,0,0.6384717,111.33286,-16.671172)"
       style="stroke-width:0.82880207;stroke-dasharray:none">
      <rect
         style="fill:#000000;fill-opacity:0;stroke:none;stroke-width:0.82880207;stroke-linecap:round;stroke-miterlimit:11.2;stroke-dasharray:none"
         id="boundingbox"
         width="33.183838"
         height="27.003469"
         x="307.95059"
         y="-46.113049"
         inkscape:label="boundingbox"
         transform="translate(1.0400022e-6)" />
      <path
         style="display:inline;fill:none;fill-opacity:1;fill-rule:nonzero;stroke:#ffffff;stroke-width:0.82880207;stroke-dasharray:none;stroke-opacity:1"
         d="m 310.19162,-32.239655 2.64583,-2.99861 3.2632,-1.85209 5.99722,-1.14652 5.82083,2.02847 2.20486,0.79375 1.23472,-1.6757 -1.94027,-4.93888 2.64583,2.02847 2.64583,1.32291 3.70417,3.52778 -6.08542,-0.97014 -1.94028,2.55765 -2.02847,-0.88195 2.64584,3.61597 1.32291,0.70556 -1.41111,-0.17639 -3.61597,3.79236 -5.82083,1.058339 -3.52778,-0.617369 2.46944,-2.29305 1.32292,-2.99861 -3.175,-2.20486 -3.08681,-0.61737 -1.94027,2.73403 -0.52917,0.26459 0.97014,-3.17501 -3.2632,1.7639 z"
         id="idle"
         inkscape:label="idle" />
    </g>
    <g
       id="g20"
       inkscape:label="flap1"
       transform="matrix(0.6384717,0,0,0.6384717,83.388656,-16.671172)"
       style="stroke-width:0.82880207;stroke-dasharray:none">
      <rect
         style="fill:#000000;fill-opacity:0;stroke:none;stroke-width:0.82880207;stroke-linecap:round;stroke-miterlimit:11.2;stroke-dasharray:none"
         id="rect18"
         width="33.183838"
         height="27.003469"
         x="351.71793"
         y="-46.113049"
         inkscape:label="boundingbox"
         transform="translate(1.0400022e-6)" />
      <path
         style="display:inline;fill:none;stroke:#ffffff;stroke-width:0.82880207;stroke-dasharray:none;stroke-opacity:1"
         d="m 378.30421,-38.657269 -2.64583,-1.32291 -2.64584,-2.02847 1.94028,4.93888 -1.23472,1.6757 -2.20486,-0.79375 -0.0882,-0.52917 -3.52777,-6.87916 -3.08681,5.55625 -5.11528,0.97013 -3.26319,1.85209 -2.64583,2.99861 0.52916,-0.35277 3.2632,-1.7639 -0.97014,3.17501 0.52916,-0.26459 1.94028,-2.73403 3.08681,-0.79375 7.49653,2.02848 2.29305,-1.49931 2.02847,0.88195 1.94028,-2.55765 6.08542,0.97014 -3.70417,-3.52778"
         id="flap1"
         inkscape:label="flap1" />
    </g>
    <g
       id="g22"
       transform="matrix(0.6384717,0,0,0.6384717,55.568628,-16.671172)"
       inkscape:label="flap2"
       style="stroke-width:0.82880207;stroke-dasharray:none">
      <rect
         style="fill:#000000;fill-opacity:0;stroke:none;stroke-width:0.82880207;stroke-linecap:round;stroke-miterlimit:11.2;stroke-dasharray:none"
         id="rect2"
         width="33.183838"
         height="27.003469"
         x="395.29077"
         y="-46.113049"
         inkscape:label="boundingbox" />
      <path
         style="display:inline;fill:none;stroke:#ffffff;stroke-width:0.82880207;stroke-dasharray:none;stroke-opacity:1"
         d="m 397.36667,-32.170182 2.64583,-2.998608 3.26319,-1.852083 5.99722,-1.146528 5.82084,2.028472 2.20486,0.79375 1.23472,-1.675694 -1.94028,-4.938889 2.64584,2.028472 2.64583,1.322917 3.70417,3.527777 -6.08542,-0.970139 -1.94028,2.557643 -2.02847,-0.881948 2.64583,3.615968 1.32292,0.70556 -1.41111,-0.17639 -6.61458,8.81945 -3.88056,-6.87917 1.32292,-2.99861 -3.175,-3.615975 -3.08681,0.79375 -1.94028,2.734025 -0.52916,0.26459 0.97014,-3.175004 -3.2632,1.763894 -0.52916,0.35277"
         id="flap2"
         inkscape:label="flap2" />
    </g>
    <path
       sodipodi:type="star"
       style="fill:none;fill-opacity:0;stroke:#ffffff;stroke-width:0.133554;stroke-linecap:round;stroke-miterlimit:11.2;stroke-dasharray:none;stroke-opacity:1"
       id="path8"
       inkscape:flatsided="true"
       sodipodi:sides="35"
       sodipodi:cx="531.75385"
       sodipodi:cy="-75.123894"
       sodipodi:r1="37.809593"
       sodipodi:r2="38.581219"
       sodipodi:arg1="0.19739556"
       sodipodi:arg2="0.28715535"
       inkscape:rounded="0"
       inkscape:randomized="0"
       d="m 568.8292,-67.708822 -1.91983,6.500897 -3.04975,6.053626 -4.08166,5.411788 -4.98238,4.596009 -5.72296,3.63251 -6.2796,2.552261 -6.63441,1.38998 -6.77598,0.183022 -6.69977,-1.029817 -6.40822,-2.209556 -5.9107,-3.31828 -5.22322,-4.320351 -4.36784,-5.183562 -3.3721,-5.88017 -2.26796,-6.387783 -1.09092,-6.690088 0.12116,-6.777369 1.32937,-6.646818 2.49483,-6.302635 3.58012,-5.755878 4.55034,-5.024124 5.37431,-4.13089 6.02553,-3.10488 6.48311,-1.97909 6.73229,-0.78968 6.76511,0.42511 6.58048,1.62623 6.18436,2.77509 5.58946,3.83475 4.81492,4.771167 3.88561,5.554225 2.83142,6.15877 1.68624,6.565366 0.48684,6.760946 z"
       transform="matrix(3.9621948,0,0,3.9621948,-1458.6912,459.62775)" />
    <g
       id="g17"
       inkscape:label="idle"
       transform="translate(0,-47.438905)">
      <rect
         style="fill:#000000;fill-opacity:0;stroke:none;stroke-width:0.389007;stroke-linecap:round;stroke-miterlimit:11.2"
         id="rect17"
         width="33.183838"
         height="27.003469"
         x="307.95059"
         y="-46.113049"
         inkscape:label="boundingbox"
         transform="translate(1.0400022e-6)" />
      <path
         style="display:inline;fill:none;fill-opacity:1;fill-rule:nonzero;stroke:#ffffff;stroke-width:0.529167;stroke-dasharray:none;stroke-opacity:1"
         d="m 310.19162,-32.239655 2.64583,-2.99861 3.2632,-1.85209 5.99722,-1.14652 5.82083,2.02847 2.20486,0.79375 1.23472,-1.6757 -1.94027,-4.93888 2.64583,2.02847 2.64583,1.32291 3.70417,3.52778 -6.08542,-0.97014 -1.94028,2.55765 -2.02847,-0.88195 2.64584,3.61597 1.32291,0.70556 -1.41111,-0.17639 -3.61597,3.79236 -5.82083,1.058339 -3.52778,-0.617369 2.46944,-2.29305 1.32292,-2.99861 -3.175,-2.20486 -3.08681,-0.61737 -1.94027,2.73403 -0.52917,0.26459 0.97014,-3.17501 -3.2632,1.7639 z"
         id="path17"
         inkscape:label="idle" />
    </g>
    <g
       id="g21"
       inkscape:label="flap1"
       transform="translate(0,-47.438905)">
      <rect
         style="fill:#000000;fill-opacity:0;stroke:none;stroke-width:0.389007;stroke-linecap:round;stroke-miterlimit:11.2"
         id="rect19"
         width="33.183838"
         height="27.003469"
         x="351.71793"
         y="-46.113049"
         inkscape:label="boundingbox"
         transform="translate(1.0400022e-6)" />
      <path
         style="display:inline;fill:none;stroke:#ffffff;stroke-width:0.529167;stroke-dasharray:none;stroke-opacity:1"
         d="m 378.30421,-38.657269 -2.64583,-1.32291 -2.64584,-2.02847 1.94028,4.93888 -1.23472,1.6757 -2.20486,-0.79375 -0.0882,-0.52917 -3.52777,-6.87916 -3.08681,5.55625 -5.11528,0.97013 -3.26319,1.85209 -2.64583,2.99861 0.52916,-0.35277 3.2632,-1.7639 -0.97014,3.17501 0.52916,-0.26459 1.94028,-2.73403 3.08681,-0.79375 7.49653,2.02848 2.29305,-1.49931 2.02847,0.88195 1.94028,-2.55765 6.08542,0.97014 -3.70417,-3.52778"
         id="path19"
         inkscape:label="flap1" />
    </g>
    <g
       id="g23"
       transform="translate(1.0400022e-6,-47.438905)"
       inkscape:label="flap2">
      <rect
         style="fill:#000000;fill-opacity:0;stroke:none;stroke-width:0.389007;stroke-linecap:round;stroke-miterlimit:11.2"
         id="rect21"
         width="33.183838"
         height="27.003469"
         x="395.29077"
         y="-46.113049"
         inkscape:label="boundingbox" />
      <path
         style="display:inline;fill:none;stroke:#ffffff;stroke-width:0.529167;stroke-dasharray:none;stroke-opacity:1"
         d="m 397.36667,-32.170182 2.64583,-2.998608 3.26319,-1.852083 5.99722,-1.146528 5.82084,2.028472 2.20486,0.79375 1.23472,-1.675694 -1.94028,-4.938889 2.64584,2.028472 2.64583,1.322917 3.70417,3.527777 -6.08542,-0.970139 -1.94028,2.557643 -2.02847,-0.881948 2.64583,3.615968 1.32292,0.70556 -1.41111,-0.17639 -6.61458,8.81945 -3.88056,-6.87917 1.32292,-2.99861 -3.175,-3.615975 -3.08681,0.79375 -1.94028,2.734025 -0.52916,0.26459 0.97014,-3.175004 -3.2632,1.763894 -0.52916,0.35277"
         id="path21"
         inkscape:label="flap2" />
    </g>
  </g>
</svg>
