<?xml version="1.0" encoding="UTF-8" standalone="no"?>
<!-- Generator: Gravit.io -->
<svg xmlns="http://www.w3.org/2000/svg" xmlns:xlink="http://www.w3.org/1999/xlink" style="isolation:isolate" viewBox="60 219 324 323.673" width="324pt" height="323.673pt"><g><path d=" M 262.382 226.504 L 312.731 249.622 L 352.137 288.568 L 375.847 338.642 L 381 393.805 L 366.976 447.404 L 335.465 492.974 L 290.27 525.019 L 236.839 539.673 L 181.619 535.169 L 131.269 512.051 L 91.863 473.106 L 68.153 423.031 L 63 367.868 L 77.025 314.268 L 108.535 268.699 L 153.732 236.654 L 207.162 222 L 262.382 226.504 Z " fill="none" vector-effect="non-scaling-stroke" stroke-width="2" stroke="rgb(255,255,255)" stroke-linejoin="miter" stroke-linecap="butt" stroke-miterlimit="3" style="mix-blend-mode:source-over;"/><path d=" M 199.834 224.008 L 214.956 226.79 L 218.443 234.27 L 208.471 242.653 L 203.494 237.998 L 202.424 237.72 L 193.349 239.105 L 188.051 237.071 L 175.52 246.622 L 175.137 253.126 L 180.083 255.766 L 186.036 252.323 L 188.689 248.699 L 201.33 243.927 L 204.52 245.132 L 208.026 248.594 L 209.25 253.405 L 207.037 257.17 L 206.839 259.197 L 208.811 259.252 L 210.159 258.77 L 210.443 259.593 L 208.224 268.074 L 193.813 269.644 L 188.261 273.632 L 164.411 279.313 L 160.201 278.702 L 142.433 288.463 L 139.979 304.067 L 137.679 305.21 L 135.979 303.381 L 134.026 297.068 L 129.092 290.831 L 113.365 291.653 L 102.546 300.888 L 101.31 312.178 L 107.51 315.12 L 110.41 314.514 L 113.791 315.875 L 113.885 319.213 L 110.243 322.557 L 111.152 329.129 L 110.935 340.938 L 115.052 346.322 L 118.749 348.467 L 136.43 343.453 L 177.467 369.851 L 188.261 388.737 L 208.125 398.412 L 210.74 407.209 L 183.799 445.712 L 176.756 447.931 L 144.696 482.168 L 140.047 494.062 L 142.934 511.292 L 138.768 509.623 L 126.891 497.228 L 121.952 416.458 L 106.193 399.785 L 103.839 379.167 L 115.739 354.21 L 112.672 349.326 L 107.584 345.487 L 105.241 336.925 L 100.481 331.775 L 100.06 328.863 L 100.753 324.876 L 89.897 318.163 L 86.016 301.267" fill="none" vector-effect="non-scaling-stroke" stroke-width="2" stroke="rgb(255,255,255)" stroke-linejoin="miter" stroke-linecap="butt" stroke-miterlimit="3" style="mix-blend-mode:source-over;"/><path d=" M 315.335 507.354 L 315.261 507.354 L 304.999 507.283 L 304.269 503.893 L 312.189 485.915 L 311.972 469.43 L 323.755 448.106 L 324.633 437.453 L 323.446 434.17 L 323.477 419.184 L 325.326 414.282 L 325.375 404.137 L 322.884 402.913 L 321.61 403.482 L 285.822 396.706 L 271.164 384.311 L 267.9 376.422 L 272.24 342.563 L 293.018 322.73 L 305.03 319.318 L 333.115 322.132 L 349.51 333.172 L 361.967 333.84 L 361.51 331.039 L 356.416 322.916 L 351.056 321.284 L 345.523 316.208 L 344.898 314.378 L 337.511 311.794 L 333.801 313.098 L 330.741 313.668 L 328.701 310.836 L 328.423 307.009 L 324.454 307.053 L 314.983 301.421 L 313.023 313.105 L 305.617 315.201 L 297.617 312.993 L 289.197 299.956 L 296.585 290.157 L 313.518 286.206 L 312.244 274.955 L 307.305 274.281 L 293.679 264.483 L 292.771 252.551 L 292.962 251.995 L 302.204 250.956 L 314.3 251.163" fill="none" vector-effect="non-scaling-stroke" stroke-width="2" stroke="rgb(255,255,255)" stroke-linejoin="miter" stroke-linecap="butt" stroke-miterlimit="3" style="mix-blend-mode:source-over;"/><path d=" M 286.492 271.455 L 282.358 274.671 L 284.558 278.554 L 289.1 276.467 L 290.416 282.931 L 294.984 286.459 L 301.582 282.855 L 288.761 266.4 L 285.992 266.744 L 285.71 268.768 L 286.492 271.455 Z " fill="none" vector-effect="non-scaling-stroke" stroke-width="2" stroke="rgb(255,255,255)" stroke-linejoin="miter" stroke-linecap="butt" stroke-miterlimit="3" style="mix-blend-mode:source-over;"/><path d=" M 126.839 315.613 L 147.332 318.45 L 148.322 317.621 L 147.561 316.549 L 134.786 312.335 L 126.839 315.613 Z " fill="none" vector-effect="non-scaling-stroke" stroke-width="2" stroke="rgb(255,255,255)" stroke-linejoin="miter" stroke-linecap="butt" stroke-miterlimit="3" style="mix-blend-mode:source-over;"/><path d=" M 142.547 327.265 L 156.156 329.331 L 157.087 325.779 L 151.305 322.843 L 142.547 327.265 Z " fill="none" vector-effect="non-scaling-stroke" stroke-width="2" stroke="rgb(255,255,255)" stroke-linejoin="miter" stroke-linecap="butt" stroke-miterlimit="3" style="mix-blend-mode:source-over;"/></g></svg>