<?xml version="1.0" encoding="utf-8"?>
<!-- Generator: Adobe Illustrator 27.7.0, SVG Export Plug-In . SVG Version: 6.00 Build 0)  -->
<svg version="1.1" id="Layer_1" xmlns="http://www.w3.org/2000/svg" xmlns:xlink="http://www.w3.org/1999/xlink" x="0px" y="0px"
	 viewBox="0 0 324 323.7" style="enable-background:new 0 0 324 323.7;" xml:space="preserve">
<style type="text/css">
	.st0{fill:none;stroke:#FFFFFF;stroke-width:2;stroke-miterlimit:3;}
	.st1{fill:none;stroke:#396DB4;stroke-width:2;stroke-miterlimit:10;}
</style>
<g>
	<path vector-effect="non-scaling-stroke" class="st0" d="M202.4,7.5l50.3,23.1l39.4,38.9l23.7,50.1l5.2,55.2l-14,53.6L275.5,274
		l-45.2,32l-53.4,14.7l-55.2-4.5l-50.4-23.1l-39.4-38.9L8.2,204L3,148.9l14-53.6l31.5-45.6l45.2-32L147.2,3L202.4,7.5z"/>
	<path vector-effect="non-scaling-stroke" class="st0" d="M139.8,5L155,7.8l3.5,7.5l-10,8.4l-5-4.7l-1.1-0.3l-9.1,1.4l-5.3-2
		l-12.5,9.6l-0.4,6.5l4.9,2.6l6-3.4l2.7-3.6l12.6-4.8l3.2,1.2l3.5,3.5l1.2,4.8l-2.2,3.8l-0.2,2l2,0.1l1.3-0.5l0.3,0.8l-2.2,8.5
		l-14.4,1.6l-5.6,4l-23.9,5.7l-4.2-0.6l-17.8,9.8L80,85.1l-2.3,1.1L76,84.4l-2-6.3l-4.9-6.2l-15.7,0.8l-10.8,9.2l-1.2,11.3l6.2,2.9
		l2.9-0.6l3.4,1.4l0.1,3.3l-3.6,3.3l0.9,6.6l-0.2,11.8l4.1,5.4l3.7,2.1l17.7-5l41,26.4l10.8,18.9l19.9,9.7l2.6,8.8l-26.9,38.5
		l-7,2.2l-32.1,34.2L80,275.1l2.9,17.2l-4.2-1.7l-11.9-12.4L62,197.5l-15.8-16.7l-2.4-20.6l11.9-25l-3.1-4.9l-5.1-3.8l-2.3-8.6
		l-4.8-5.1l-0.4-2.9l0.7-4l-10.9-6.7L26,82.3"/>
	<path vector-effect="non-scaling-stroke" class="st0" d="M255.3,288.4L255.3,288.4l-10.3-0.1l-0.7-3.4l7.9-18l-0.2-16.5l11.8-21.3
		l0.9-10.7l-1.2-3.3l0-15l1.8-4.9l0-10.1l-2.5-1.2l-1.3,0.6l-35.8-6.8l-14.7-12.4l-3.3-7.9l4.3-33.9l20.8-19.8l12-3.4l28.1,2.8
		l16.4,11l12.5,0.7l-0.5-2.8l-5.1-8.1l-5.4-1.6l-5.5-5.1l-0.6-1.8l-7.4-2.6l-3.7,1.3l-3.1,0.6l-2-2.8l-0.3-3.8l-4,0l-9.5-5.6
		l-2,11.7l-7.4,2.1l-8-2.2l-8.4-13l7.4-9.8l16.9-4L252.2,56l-4.9-0.7l-13.6-9.8l-0.9-11.9L233,33l9.2-1l12.1,0.2"/>
	<path vector-effect="non-scaling-stroke" class="st0" d="M226.5,52.5l-4.1,3.2l2.2,3.9l4.5-2.1l1.3,6.5l4.6,3.5l6.6-3.6l-12.8-16.5
		l-2.8,0.3l-0.3,2L226.5,52.5z"/>
	<path vector-effect="non-scaling-stroke" class="st0" d="M66.8,96.6l20.5,2.8l1-0.8l-0.8-1.1l-12.8-4.2L66.8,96.6z"/>
	<path vector-effect="non-scaling-stroke" class="st0" d="M82.5,108.3l13.6,2.1l0.9-3.6l-5.8-2.9L82.5,108.3z"/>
</g>
<g>
	<polygon class="st1" points="185,136.3 168,117.7 202.7,140.3 222.4,152.8 225.8,152 238.6,148.7 244.7,152.1 250.4,152.5 
		244.9,160.5 240.9,157.2 230.8,158.3 227.2,161.4 227,164.1 230.7,166.2 235.7,166.5 237,172.3 232,172.6 229,175.1 226.7,170 
		222.3,166.7 221.5,161.4 218.9,162.6 209.8,163.6 218.7,173.6 221.3,179.7 215.1,178 213.7,174.9 202.8,163.7 201,158.8 
		193.3,156.9 181.4,154.9 169.6,159.7 166.8,163 163.7,158.7 166.3,155.3 179.3,149.2 191.9,147.5 	"/>
</g>
</svg>
