<?xml version="1.0" encoding="utf-8"?>
<!-- Generator: Adobe Illustrator 27.7.0, SVG Export Plug-In . SVG Version: 6.00 Build 0)  -->
<svg version="1.1" id="by_hand" xmlns="http://www.w3.org/2000/svg" xmlns:xlink="http://www.w3.org/1999/xlink" x="0px" y="0px"
	 viewBox="0 0 75.1 44.8" style="enable-background:new 0 0 75.1 44.8;" xml:space="preserve">
<style type="text/css">
	.st0{fill:none;stroke:#DB1919;stroke-width:2;stroke-miterlimit:8.0871;}
</style>
<line class="st0" x1="24.9" y1="1.1" x2="60.5" y2="13.2"/>
<line class="st0" x1="9" y1="3.4" x2="24.9" y2="1.1"/>
<line class="st0" x1="24.4" y1="5.1" x2="9" y2="3.4"/>
<line class="st0" x1="33.4" y1="18.8" x2="24.4" y2="5.1"/>
<line class="st0" x1="23.5" y1="27" x2="33.4" y2="18.8"/>
<line class="st0" x1="16.9" y1="41.4" x2="23.5" y2="27"/>
<line class="st0" x1="19.2" y1="43.9" x2="16.9" y2="41.4"/>
<line class="st0" x1="24.4" y1="43.2" x2="19.2" y2="43.9"/>
<line class="st0" x1="20.8" y1="40.8" x2="24.4" y2="43.2"/>
<line class="st0" x1="26.4" y1="29.6" x2="20.8" y2="40.8"/>
<line class="st0" x1="44.3" y1="24.7" x2="26.4" y2="29.6"/>
<line class="st0" x1="40.9" y1="30.4" x2="44.3" y2="24.7"/>
<line class="st0" x1="50.9" y1="42.9" x2="40.9" y2="30.4"/>
<line class="st0" x1="48.6" y1="39.3" x2="50.9" y2="42.9"/>
<line class="st0" x1="45.5" y1="29.9" x2="48.6" y2="39.3"/>
<line class="st0" x1="59.7" y1="21.8" x2="45.5" y2="29.9"/>
<line class="st0" x1="63.6" y1="30.2" x2="59.7" y2="21.8"/>
<line class="st0" x1="67.4" y1="33.5" x2="63.6" y2="30.2"/>
<line class="st0" x1="69.8" y1="30.6" x2="67.4" y2="33.5"/>
<line class="st0" x1="68.4" y1="29.9" x2="69.8" y2="30.6"/>
<line class="st0" x1="62.9" y1="24.6" x2="68.4" y2="29.9"/>
<line class="st0" x1="68.1" y1="7.2" x2="62.9" y2="24.6"/>
<line class="st0" x1="72.2" y1="8.4" x2="68.1" y2="7.2"/>
<line class="st0" x1="73.8" y1="1.4" x2="72.2" y2="8.4"/>
<line class="st0" x1="69.7" y1="2.8" x2="73.8" y2="1.4"/>
<line class="st0" x1="64" y1="2.8" x2="69.7" y2="2.8"/>
<line class="st0" x1="61.8" y1="11.3" x2="64" y2="2.8"/>
</svg>
