<?xml version="1.0" encoding="UTF-8" standalone="no"?>
<!-- Created with Inkscape (http://www.inkscape.org/) -->

<svg
   width="26.496mm"
   height="15.813395mm"
   viewBox="0 0 26.496001 15.813395"
   version="1.1"
   id="svg461"
   inkscape:version="1.2.2 (732a01da63, 2022-12-09)"
   sodipodi:docname="ovi-death.svg"
   xml:space="preserve"
   xmlns:inkscape="http://www.inkscape.org/namespaces/inkscape"
   xmlns:sodipodi="http://sodipodi.sourceforge.net/DTD/sodipodi-0.dtd"
   xmlns="http://www.w3.org/2000/svg"
   xmlns:svg="http://www.w3.org/2000/svg"><sodipodi:namedview
     id="namedview463"
     pagecolor="#4c4c4c"
     bordercolor="#000000"
     borderopacity="0.25"
     inkscape:showpageshadow="2"
     inkscape:pageopacity="0"
     inkscape:pagecheckerboard="0"
     inkscape:deskcolor="#d1d1d1"
     inkscape:document-units="mm"
     showgrid="false"
     inkscape:zoom="6.6557132"
     inkscape:cx="63.253927"
     inkscape:cy="24.490238"
     inkscape:window-width="1920"
     inkscape:window-height="1009"
     inkscape:window-x="-8"
     inkscape:window-y="-8"
     inkscape:window-maximized="1"
     inkscape:current-layer="layer1" /><defs
     id="defs458" /><g
     inkscape:label="Layer 1"
     inkscape:groupmode="layer"
     id="layer1"
     transform="translate(-85.808034,-99.602553)"><path
       style="display:inline;fill:none;stroke:#ffffff;stroke-width:2.61315;stroke-miterlimit:11.2"
       d="m 872.3,424.8 0.8,4.6"
       transform="matrix(0.25472782,0,0,0.25472782,-111.77678,2.1877566)"
       id="path11060" /><path
       style="display:inline;fill:none;stroke:#ffffff;stroke-width:2.61315;stroke-miterlimit:11.2"
       d="m 869,423.7 3.3,1.1"
       transform="matrix(0.25472782,0,0,0.25472782,-111.77678,2.1877566)"
       id="path11058" /><path
       style="display:inline;fill:none;stroke:#ffffff;stroke-width:2.61315;stroke-miterlimit:11.2"
       d="m 862.7,416.7 6.3,7"
       transform="matrix(0.25472782,0,0,0.25472782,-111.77678,2.1877566)"
       id="path11056" /><path
       style="display:inline;fill:none;stroke:#ffffff;stroke-width:2.61315;stroke-miterlimit:11.2"
       d="m 865.8,408.5 -3.1,8.2"
       transform="matrix(0.25472782,0,0,0.25472782,-111.77678,2.1877566)"
       id="path11054" /><path
       style="display:inline;fill:none;stroke:#ffffff;stroke-width:2.61315;stroke-miterlimit:11.2"
       d="m 867.3,402.5 -1.5,6"
       transform="matrix(0.25472782,0,0,0.25472782,-111.77678,2.1877566)"
       id="path11052" /><path
       style="display:inline;fill:none;stroke:#ffffff;stroke-width:2.61315;stroke-miterlimit:11.2"
       d="m 870,392.4 -2.7,10.1"
       transform="matrix(0.25472782,0,0,0.25472782,-111.77678,2.1877566)"
       id="path11050" /><path
       style="display:inline;fill:none;stroke:#ffffff;stroke-width:2.61315;stroke-miterlimit:11.2"
       d="M 875.7,394.1 870,392.4"
       transform="matrix(0.25472782,0,0,0.25472782,-111.77678,2.1877566)"
       id="path11048" /><path
       style="display:inline;fill:none;stroke:#ffffff;stroke-width:2.61315;stroke-miterlimit:11.2"
       d="m 877.9,384.4 -2.2,9.7"
       transform="matrix(0.25472782,0,0,0.25472782,-111.77678,2.1877566)"
       id="path11046" /><path
       style="display:inline;fill:none;stroke:#ffffff;stroke-width:2.61315;stroke-miterlimit:11.2"
       d="m 872.2,386.3 5.7,-1.9"
       transform="matrix(0.25472782,0,0,0.25472782,-111.77678,2.1877566)"
       id="path11044" /><path
       style="display:inline;fill:none;stroke:#ffffff;stroke-width:2.61315;stroke-miterlimit:11.2"
       d="m 864.5,385.3 7.7,1"
       transform="matrix(0.25472782,0,0,0.25472782,-111.77678,2.1877566)"
       id="path11042" /><path
       style="display:inline;fill:none;stroke:#ffffff;stroke-width:2.61315;stroke-miterlimit:11.2"
       d="m 861,399.4 3.5,-14.1"
       transform="matrix(0.25472782,0,0,0.25472782,-111.77678,2.1877566)"
       id="path11040" /><path
       style="display:inline;fill:none;stroke:#ffffff;stroke-width:2.61315;stroke-miterlimit:11.2"
       d="m 857.4,402 3.6,-2.6"
       transform="matrix(0.25472782,0,0,0.25472782,-111.77678,2.1877566)"
       id="path11038" /><path
       style="display:inline;fill:none;stroke:#ffffff;stroke-width:2.61315;stroke-miterlimit:11.2"
       d="m 830.2,391 27.2,11"
       transform="matrix(0.25472782,0,0,0.25472782,-111.77678,2.1877566)"
       id="path11036" /><path
       style="display:inline;fill:none;stroke:#ffffff;stroke-width:0.665642;stroke-miterlimit:11.2"
       d="m 94.578227,99.977767 c 1.706677,0.602853 3.413351,1.205713 5.120029,1.808563"
       id="path11034" /><path
       style="display:inline;fill:none;stroke:#ffffff;stroke-width:2.61315;stroke-miterlimit:11.2"
       d="m 786.6,387.2 23.5,-3.3"
       transform="matrix(0.25472782,0,0,0.25472782,-111.77678,2.1877566)"
       id="path11032" /><path
       style="display:inline;fill:none;stroke:#ffffff;stroke-width:2.61315;stroke-miterlimit:11.2"
       d="m 809.5,389.5 -22.9,-2.3"
       transform="matrix(0.25472782,0,0,0.25472782,-111.77678,2.1877566)"
       id="path11030" /><path
       style="display:inline;fill:none;stroke:#ffffff;stroke-width:2.61315;stroke-miterlimit:11.2"
       d="M 822.4,409.3 809.5,389.5"
       transform="matrix(0.25472782,0,0,0.25472782,-111.77678,2.1877566)"
       id="path11028" /><path
       style="display:inline;fill:none;stroke:#ffffff;stroke-width:2.61315;stroke-miterlimit:11.2"
       d="m 809.1,419.8 13.3,-10.5"
       transform="matrix(0.25472782,0,0,0.25472782,-111.77678,2.1877566)"
       id="path11026" /><path
       style="display:inline;fill:none;stroke:#ffffff;stroke-width:2.61315;stroke-miterlimit:11.2"
       d="m 799.9,439.8 9.2,-20"
       transform="matrix(0.25472782,0,0,0.25472782,-111.77678,2.1877566)"
       id="path11024" /><path
       style="display:inline;fill:none;stroke:#ffffff;stroke-width:2.61315;stroke-miterlimit:11.2"
       d="m 802.2,443.2 -2.3,-3.4"
       transform="matrix(0.25472782,0,0,0.25472782,-111.77678,2.1877566)"
       id="path11022" /><path
       style="display:inline;fill:none;stroke:#ffffff;stroke-width:2.61315;stroke-miterlimit:11.2"
       d="m 808.9,443.2 h -6.7"
       transform="matrix(0.25472782,0,0,0.25472782,-111.77678,2.1877566)"
       id="path11020" /><path
       style="display:inline;fill:none;stroke:#ffffff;stroke-width:2.61315;stroke-miterlimit:11.2"
       d="m 809.4,441.2 -0.5,2"
       transform="matrix(0.25472782,0,0,0.25472782,-111.77678,2.1877566)"
       id="path11018" /><path
       style="display:inline;fill:none;stroke:#ffffff;stroke-width:2.61315;stroke-miterlimit:11.2"
       d="m 804.2,439.5 5.2,1.7"
       transform="matrix(0.25472782,0,0,0.25472782,-111.77678,2.1877566)"
       id="path11016" /><path
       style="display:inline;fill:none;stroke:#ffffff;stroke-width:2.61315;stroke-miterlimit:11.2"
       d="m 812.2,423.4 -8,16.1"
       transform="matrix(0.25472782,0,0,0.25472782,-111.77678,2.1877566)"
       id="path11014" /><path
       style="display:inline;fill:none;stroke:#ffffff;stroke-width:2.61315;stroke-miterlimit:11.2"
       d="m 827.4,418.3 -15.2,5.1"
       transform="matrix(0.25472782,0,0,0.25472782,-111.77678,2.1877566)"
       id="path11012" /><path
       style="display:inline;fill:none;stroke:#ffffff;stroke-width:2.61315;stroke-miterlimit:11.2"
       d="m 837.7,416.7 -10.3,1.6"
       transform="matrix(0.25472782,0,0,0.25472782,-111.77678,2.1877566)"
       id="path11010" /><path
       style="display:inline;fill:none;stroke:#ffffff;stroke-width:2.61315;stroke-miterlimit:11.2"
       d="m 832.3,423.9 5.4,-7.2"
       transform="matrix(0.25472782,0,0,0.25472782,-111.77678,2.1877566)"
       id="path11008" /><path
       style="display:inline;fill:none;stroke:#ffffff;stroke-width:2.61315;stroke-miterlimit:11.2"
       d="m 841.7,439.3 -9.4,-15.4"
       transform="matrix(0.25472782,0,0,0.25472782,-111.77678,2.1877566)"
       id="path11006" /><path
       style="display:inline;fill:none;stroke:#ffffff;stroke-width:2.61315;stroke-miterlimit:11.2"
       d="m 844.5,441.9 -2.8,-2.6"
       transform="matrix(0.25472782,0,0,0.25472782,-111.77678,2.1877566)"
       id="path11004" /><path
       style="display:inline;fill:none;stroke:#ffffff;stroke-width:2.61315;stroke-miterlimit:11.2"
       d="m 847.8,441.7 -3.3,0.2"
       transform="matrix(0.25472782,0,0,0.25472782,-111.77678,2.1877566)"
       id="path11002" /><path
       style="display:inline;fill:none;stroke:#ffffff;stroke-width:2.61315;stroke-miterlimit:11.2"
       d="m 843,436.9 4.8,4.8"
       transform="matrix(0.25472782,0,0,0.25472782,-111.77678,2.1877566)"
       id="path11000" /><path
       style="display:inline;fill:none;stroke:#ffffff;stroke-width:2.61315;stroke-miterlimit:11.2"
       d="m 837.7,424.5 5.3,12.4"
       transform="matrix(0.25472782,0,0,0.25472782,-111.77678,2.1877566)"
       id="path10998" /><path
       style="display:inline;fill:none;stroke:#ffffff;stroke-width:2.61315;stroke-miterlimit:11.2"
       d="m 858.7,412.4 -21,12.1"
       transform="matrix(0.25472782,0,0,0.25472782,-111.77678,2.1877566)"
       id="path10996" /><path
       style="display:inline;fill:none;stroke:#ffffff;stroke-width:2.61315;stroke-miterlimit:11.2"
       d="m 856.7,418 2,-5.6"
       transform="matrix(0.25472782,0,0,0.25472782,-111.77678,2.1877566)"
       id="path10994" /><path
       style="display:inline;fill:none;stroke:#ffffff;stroke-width:2.61315;stroke-miterlimit:11.2"
       d="M 863.8,424.2 856.7,418"
       transform="matrix(0.25472782,0,0,0.25472782,-111.77678,2.1877566)"
       id="path10992" /><path
       style="display:inline;fill:none;stroke:#ffffff;stroke-width:2.61315;stroke-miterlimit:11.2"
       d="m 864.7,430.9 -0.9,-6.7"
       transform="matrix(0.25472782,0,0,0.25472782,-111.77678,2.1877566)"
       id="path10990" /><path
       style="display:inline;fill:none;stroke:#ffffff;stroke-width:2.61315;stroke-miterlimit:11.2"
       d="m 868.4,428.2 -3.7,2.7"
       transform="matrix(0.25472782,0,0,0.25472782,-111.77678,2.1877566)"
       id="path10988" /><path
       style="display:inline;fill:none;stroke:#ffffff;stroke-width:2.61315;stroke-miterlimit:11.2"
       d="m 873.1,429.4 -4.7,-1.2"
       transform="matrix(0.25472782,0,0,0.25472782,-111.77678,2.1877566)"
       id="polygon138" /></g></svg>
