<?xml version="1.0" encoding="utf-8"?>
<!-- Generator: Adobe Illustrator 27.1.1, SVG Export Plug-In . SVG Version: 6.00 Build 0)  -->
<svg version="1.1" id="Layer_1" xmlns="http://www.w3.org/2000/svg" xmlns:xlink="http://www.w3.org/1999/xlink" x="0px" y="0px"
	 viewBox="0 0 1920 1080" style="enable-background:new 0 0 1920 1080;" xml:space="preserve">
<style type="text/css">
	.st0{fill:#FFFFFF;}
</style>
<g>
	<polygon class="st0" points="802.2,443.2 799.9,439.8 809.1,419.8 822.4,409.3 809.5,389.5 786.6,387.2 810.1,383.9 830.2,391 
		857.4,402 861,399.4 864.5,385.3 872.2,386.3 877.9,384.4 875.7,394.1 870,392.4 867.3,402.5 865.8,408.5 862.7,416.7 869,423.7 
		872.3,424.8 873.1,429.4 868.4,428.2 864.7,430.9 863.8,424.2 856.7,418 858.7,412.4 837.7,424.5 843,436.9 847.8,441.7 
		844.5,441.9 841.7,439.3 832.3,423.9 837.7,416.7 827.4,418.3 812.2,423.4 804.2,439.5 809.4,441.2 808.9,443.2 	"/>
	<path d="M810.1,384.4l19.9,7l27,10.9l0.5,0.2l0.4-0.3l3.2-2.4l0.3-0.2l0.1-0.4l3.3-13.4l7.2,0.9l0.2,0l0.2-0.1l4.7-1.5l-1.9,8.3
		l-4.7-1.4l-1-0.3l-0.3,1l-2.5,9.6l-1.5,5.9l-3,8l-0.2,0.6l0.4,0.5l6,6.6l0.2,0.2l0.3,0.1l2.9,0.9l0.6,3.6l-3.8-1l-0.5-0.1l-0.4,0.3
		l-2.8,2l-0.8-5.6l-0.1-0.4l-0.3-0.2l-6.7-5.9l1.4-3.9l0.9-2.6l-2.4,1.4l-19.4,11.2l-0.8,0.4l0.4,0.8l5.1,11.9l0.1,0.2l0.1,0.1
		l3.9,3.9l-2,0.1l-2.5-2.4l-9.2-15.1l4.5-6l1.5-2l-2.4,0.4l-9.1,1.4l-0.1,0l-0.1,0l-14.9,5l-0.4,0.1l-0.2,0.4l-7.6,15.5l-0.5,1
		l1.1,0.4l4.1,1.3l-0.3,1.2h-6l-2-3l9-19.6l12.8-10.2l0.7-0.6l-0.5-0.8L810,389.5l-0.3-0.4l-0.5,0l-18.5-1.9L810.1,384.4
		 M810.2,383.4l-27.8,3.9l26.8,2.8l12.5,19.2l-13,10.3l-9.4,20.4l2.6,3.9h7.4l0.6-2.9l-5-1.6l7.6-15.5l14.9-5l9.1-1.4l-4.9,6.5
		l9.6,15.8l2.9,2.8l4.7-0.2l-5.5-5.5l-5.1-11.9l19.4-11.2l-1.6,4.6l7.2,6.4l1,7.2l4.1-3l5.3,1.4l-1-5.8l-3.5-1.1l-6-6.6l3-8l1.5-5.9
		l2.5-9.6l5.8,1.8l2.5-11.1l-6.4,2.1l-8.1-1l-3.5,14.3l-3.2,2.4l-27-10.9L810.2,383.4L810.2,383.4z"/>
</g>
<g>
	<polygon class="st0" points="1052.5,433.5 1053.8,429.1 1065,416.9 1078.6,409.2 1065.5,399.6 1042.2,388.5 1086.2,397 
		1113.4,401.9 1116.9,399.5 1129.2,390.3 1137.2,391.3 1142.9,389.4 1140.7,399.1 1135.3,397.5 1124.4,403.3 1121.8,408.5 
		1122.9,412.1 1128.3,412.8 1133.5,411 1137,415.9 1132.1,418.4 1130.2,421.9 1125.8,417.8 1119.7,416.1 1116.2,410.3 1113.4,413.2 
		1103.2,418.8 1118.2,426 1122.8,430.7 1119.5,430.9 1116.6,428.2 1097,421.4 1092.8,416.8 1083.4,418.3 1069.3,421.3 1057.5,431.6 
		1056.1,436 	"/>
	<path d="M1046,389.7l40.2,7.8l27,4.9l0.4,0.1l0.3-0.3l3.3-2.4l12.2-9.1l7.7,1l0.2,0l0.2-0.1l4.7-1.5l-1.9,8.3l-4.7-1.4l-0.4-0.1
		l-0.4,0.2l-10.5,5.6l-0.3,0.2l-0.1,0.3l-2.5,4.9l-0.2,0.4l0.1,0.4l1,3l0.2,0.6l0.6,0.1l5,0.6l0.2,0l0.2-0.1l4.8-1.6l2.9,4.2
		l-4.2,2.1l-0.3,0.1l-0.2,0.3l-1.5,2.8l-3.9-3.6l-0.2-0.2l-0.2-0.1l-5.8-1.6l-3-5l-0.7-1.1l-0.9,0.9l-2.3,2.3l-9.3,5.1l-1.7,0.9
		l1.7,0.8l14,6.8l3.8,3.8l-2,0.1l-2.6-2.5l-0.2-0.1l-0.2-0.1l-19.4-6.7l-4-4.3l-0.4-0.4l-0.5,0.1l-9.1,1.4l0,0l0,0l-13.9,3l-0.3,0.1
		l-0.2,0.2l-11.6,10.1l-0.2,0.2l-0.1,0.3l-1.2,3.6l-2.7-1.8l1.1-4l11.1-12.1l12.9-7.3l1.3-0.8l-1.2-0.9l-12.5-9.2l-0.1-0.1l-0.1,0
		L1046,389.7 M1038.5,387.3l26.8,12.8l12.5,9.2l-13,7.3l-11.4,12.4l-1.4,4.9l4.4,3l1.6-4.9l11.6-10.1l13.9-3l9.1-1.4l4.1,4.5
		l19.6,6.8l2.9,2.8l4.7-0.2l-5.5-5.5l-14.1-6.9l9.4-5.2l2.4-2.4l3.2,5.4l6.2,1.7l4.8,4.5l2.1-4l5.3-2.6l-4-5.8l-5.5,1.9l-5-0.6l-1-3
		l2.5-4.9l10.5-5.6l5.8,1.8l2.5-11.1l-6.4,2.1l-8.1-1l-12.5,9.3l-3.2,2.4l-27-4.9L1038.5,387.3L1038.5,387.3z"/>
</g>
<g>
	<polygon class="st0" points="827.3,695.1 826.2,688.8 832.5,682.6 832.4,681.4 822.1,664.8 809.5,655.6 786.2,644.5 830.2,653 
		857.4,657.9 860.9,655.5 873.2,646.3 881.2,647.3 886.9,645.4 884.7,655.1 879.3,653.5 868.4,659.3 865.8,664.5 866.9,668.1 
		872.3,668.8 877.5,667 881,671.9 876.1,674.4 874.2,677.9 869.8,673.8 863.7,672.1 860.2,666.3 857.4,669.2 848,674.3 842.9,679.3 
		843.2,687.5 847.9,692.1 849.9,694.4 845,694.4 837.7,688.5 835.9,686.1 830.5,691.4 830.5,695.4 	"/>
	<path d="M790,645.7l40.2,7.8l27,4.9l0.4,0.1l0.3-0.3l3.3-2.4l12.2-9.1l7.7,1l0.2,0l0.2-0.1l4.7-1.5l-1.9,8.3l-4.7-1.4l-0.4-0.1
		l-0.4,0.2l-10.5,5.6l-0.3,0.2l-0.1,0.3l-2.5,4.9l-0.2,0.4l0.1,0.4l1,3l0.2,0.6l0.6,0.1l5,0.6l0.2,0l0.2-0.1l4.8-1.6l2.9,4.2
		l-4.2,2.1l-0.3,0.1l-0.2,0.3l-1.5,2.8l-3.9-3.6l-0.2-0.2l-0.2-0.1l-5.8-1.6l-3-5l-0.7-1.1l-0.9,0.9l-2.3,2.3l-9.3,5.1l-0.1,0.1
		l-0.1,0.1l-4.9,4.7l-0.3,0.3l0,0.4l0.3,7.8l0,0.4l0.3,0.3l4.6,4.5l1.3,1.5l-3.6,0l-7.2-5.8l-1.4-1.9l-0.7-0.9l-0.8,0.8l-4.8,4.7
		l-0.3,0.3v0.4v3.3l-2.3-0.2l-1-5.7l6-5.8l0.3-0.3l0-0.5l-0.1-0.8l0-0.2l-0.1-0.2l-10.2-16.4l-0.1-0.2l-0.2-0.1l-12.5-9.2l-0.1-0.1
		l-0.1,0L790,645.7 M782.5,643.3l26.8,12.8l12.5,9.2l10.2,16.4l0.1,0.8l-6.4,6.2l1.2,7l4.1,0.4v-4.4l4.8-4.7l1.5,2l7.5,6.1l6.1-0.1
		l-2.7-3.1l-4.6-4.5l-0.3-7.8l4.9-4.7l9.4-5.2l2.4-2.4l3.2,5.4l6.2,1.7l4.8,4.5l2.1-4l5.3-2.6l-4-5.8l-5.5,1.9l-5-0.6l-1-3l2.5-4.9
		l10.5-5.6l5.8,1.8l2.5-11.1l-6.4,2.1l-8.1-1l-12.5,9.3l-3.2,2.4l-27-4.9L782.5,643.3L782.5,643.3z"/>
</g>
</svg>
