<?xml version="1.0" encoding="UTF-8" standalone="no"?>
<!-- Generator: Adobe Illustrator 27.7.0, SVG Export Plug-In . SVG Version: 6.00 Build 0)  -->

<svg
   version="1.1"
   id="Layer_1"
   x="0px"
   y="0px"
   viewBox="0 0 1536 768"
   style="enable-background:new 0 0 1536 768;"
   xml:space="preserve"
   xmlns="http://www.w3.org/2000/svg"
   xmlns:svg="http://www.w3.org/2000/svg"><defs
   id="defs13" />
<style
   type="text/css"
   id="style2">
	.st0{fill:#FFFFFF;stroke:#ED186A;stroke-width:5;stroke-miterlimit:10;}
	.st1{fill:none;stroke:#396DB5;stroke-width:2;stroke-miterlimit:10;}
</style>
<circle
   class="st0"
   cx="757.7"
   cy="363.7"
   r="231"
   id="circle4" />
<g
   id="g8">
	<polygon
   class="st1"
   points="822.7,195.2 805.7,176.6 840.5,199.2 860.2,211.7 863.5,210.9 876.4,207.6 882.5,211 888.2,211.4    882.6,219.3 878.7,216.1 868.6,217.1 865,220.3 864.8,223 868.5,225 873.4,225.3 874.7,231.1 869.8,231.5 866.8,234 864.4,228.9    860.1,225.5 859.3,220.3 856.6,221.4 847.6,222.5 856.5,232.5 859.1,238.6 852.9,236.8 851.5,233.7 840.6,222.5 838.8,217.7    831.1,215.8 819.2,213.7 807.4,218.5 804.6,221.9 801.5,217.5 804.1,214.1 817.1,208 829.7,206.4  "
   id="polygon6" />
</g>
</svg>
