<?xml version="1.0" encoding="utf-8"?>
<!-- Generator: Adobe Illustrator 26.0.1, SVG Export Plug-In . SVG Version: 6.00 Build 0)  -->
<svg version="1.1" id="Layer_1" xmlns="http://www.w3.org/2000/svg" xmlns:xlink="http://www.w3.org/1999/xlink" x="0px" y="0px"
	 viewBox="0 0 95.1 82.9" style="enable-background:new 0 0 95.1 82.9;" xml:space="preserve">
<style type="text/css">
	.st0{fill:none;stroke:#000000;stroke-miterlimit:10;}
</style>
<line class="st0" x1="70.6" y1="3.4" x2="62.3" y2="5.1"/>
<line class="st0" x1="77.5" y1="0.5" x2="70.6" y2="3.4"/>
<line class="st0" x1="83.6" y1="5.1" x2="77.5" y2="0.5"/>
<line class="st0" x1="94.6" y1="9.6" x2="83.6" y2="5.1"/>
<line class="st0" x1="89.8" y1="18.7" x2="94.6" y2="9.6"/>
<line class="st0" x1="87.2" y1="14.4" x2="89.8" y2="18.7"/>
<line class="st0" x1="82.8" y1="18.8" x2="87.2" y2="14.4"/>
<line class="st0" x1="80" y1="13.3" x2="82.8" y2="18.8"/>
<line class="st0" x1="76.6" y1="17" x2="80" y2="13.3"/>
<line class="st0" x1="72.4" y1="11.7" x2="76.6" y2="17"/>
<line class="st0" x1="67.7" y1="24.7" x2="72.4" y2="11.7"/>
<line class="st0" x1="84.6" y1="25.7" x2="67.7" y2="24.7"/>
<line class="st0" x1="79.9" y1="28.8" x2="84.6" y2="25.7"/>
<line class="st0" x1="72.7" y1="28.4" x2="79.9" y2="28.8"/>
<line class="st0" x1="68.3" y1="32.8" x2="72.7" y2="28.4"/>
<line class="st0" x1="68.1" y1="37.2" x2="68.3" y2="32.8"/>
<line class="st0" x1="73.9" y1="42" x2="68.1" y2="37.2"/>
<line class="st0" x1="66.4" y1="40.2" x2="73.9" y2="42"/>
<line class="st0" x1="63.6" y1="51.4" x2="66.4" y2="40.2"/>
<line class="st0" x1="58.5" y1="56.3" x2="63.6" y2="51.4"/>
<line class="st0" x1="63.9" y1="60.7" x2="58.5" y2="56.3"/>
<line class="st0" x1="57.4" y1="69.3" x2="63.9" y2="60.7"/>
<line class="st0" x1="57.2" y1="76.9" x2="57.4" y2="69.3"/>
<line class="st0" x1="61.6" y1="82.4" x2="57.2" y2="76.9"/>
<line class="st0" x1="54.6" y1="82.4" x2="61.6" y2="82.4"/>
<line class="st0" x1="46.7" y1="67.1" x2="54.6" y2="82.4"/>
<line class="st0" x1="37.2" y1="76.9" x2="46.7" y2="67.1"/>
<line class="st0" x1="38.6" y1="82.4" x2="37.2" y2="76.9"/>
<line class="st0" x1="31.6" y1="82.4" x2="38.6" y2="82.4"/>
<line class="st0" x1="33.5" y1="66.8" x2="31.6" y2="82.4"/>
<line class="st0" x1="27.2" y1="64.8" x2="33.5" y2="66.8"/>
<line class="st0" x1="14" y1="54.7" x2="27.2" y2="64.8"/>
<line class="st0" x1="0.3" y1="56.4" x2="14" y2="54.7"/>
<line class="st0" x1="13.2" y1="48.5" x2="0.3" y2="56.4"/>
<line class="st0" x1="30.8" y1="51.7" x2="13.2" y2="48.5"/>
<line class="st0" x1="50.1" y1="30.2" x2="30.8" y2="51.7"/>
<line class="st0" x1="61" y1="25.4" x2="50.1" y2="30.2"/>
<line class="st0" x1="62.3" y1="5.1" x2="61" y2="25.4"/>
</svg>
