<?xml version="1.0" encoding="UTF-8" standalone="no"?>
<!-- Generator: Gravit.io -->
<svg xmlns="http://www.w3.org/2000/svg" xmlns:xlink="http://www.w3.org/1999/xlink" style="isolation:isolate" viewBox="0 0 500 500" width="500pt" height="500pt"><defs><clipPath id="_clipPath_jdzsyuAxuwughbAhMgm4ZvWNTIKnWSVw"><rect width="500" height="500"/></clipPath></defs><g clip-path="url(#_clipPath_jdzsyuAxuwughbAhMgm4ZvWNTIKnWSVw)"><g><path d=" M 385.094 246.906 L 404.721 204.777 L 359.41 91.079 L 250 44 L 140.59 91.079 L 95.279 204.777 L 114.906 246.906" fill="rgb(0,0,0)" vector-effect="non-scaling-stroke" stroke-width="1" stroke="rgb(255,255,255)" stroke-linejoin="miter" stroke-linecap="butt" stroke-miterlimit="10"/><mask id="_mask_tIoMmARdUvZdN7piIMmeY7a9tuYr9uMJ" x="-200%" y="-200%" width="400%" height="400%"><rect x="-200%" y="-200%" width="400%" height="400%" style="fill:white;"/><path d=" M 327.974 216.324 L 293.154 209.814 L 288.733 158.958 L 287.195 115.697 L 268.455 115.295 L 267.567 131.725 L 277.76 132.397 L 286.176 237.818 L 275.969 276.472 L 286.827 275.717 L 297.704 248.662 L 312.624 256.14 L 317.093 280.45 L 327.524 283.403 L 330.844 263.245 L 371.481 286.705 L 338.422 236.563 L 327.974 216.324 L 327.974 216.324 Z " fill="black" stroke="none"/></mask><path d=" M 327.974 216.324 L 293.154 209.814 L 288.733 158.958 L 287.195 115.697 L 268.455 115.295 L 267.567 131.725 L 277.76 132.397 L 286.176 237.818 L 275.969 276.472 L 286.827 275.717 L 297.704 248.662 L 312.624 256.14 L 317.093 280.45 L 327.524 283.403 L 330.844 263.245 L 371.481 286.705 L 338.422 236.563 L 327.974 216.324 L 327.974 216.324 Z " fill="none"/><path d=" M 327.974 216.324 L 293.154 209.814 L 288.733 158.958 L 287.195 115.697 L 268.455 115.295 L 267.567 131.725 L 277.76 132.397 L 286.176 237.818 L 275.969 276.472 L 286.827 275.717 L 297.704 248.662 L 312.624 256.14 L 317.093 280.45 L 327.524 283.403 L 330.844 263.245 L 371.481 286.705 L 338.422 236.563 L 327.974 216.324 L 327.974 216.324 Z " fill="none" mask="url(#_mask_tIoMmARdUvZdN7piIMmeY7a9tuYr9uMJ)" vector-effect="non-scaling-stroke" stroke-width="2" stroke="rgb(255,255,255)" stroke-linejoin="miter" stroke-linecap="butt" stroke-miterlimit="10"/><path d=" M 4.303 312.419 L 115.967 382.088 L 384.033 382.088 L 495.697 312.419 L 384.033 248.232 L 250 231.743 L 115.967 248.232 L 4.303 312.419 Z " fill="rgb(0,0,0)" vector-effect="non-scaling-stroke" stroke-width="1" stroke="rgb(255,255,255)" stroke-linejoin="miter" stroke-linecap="butt" stroke-miterlimit="10"/><path d=" M 4.303 312.419 L 115.967 340.357 L 384.033 340.357 L 495.697 312.419" fill="none" vector-effect="non-scaling-stroke" stroke-width="1" stroke="rgb(255,255,255)" stroke-linejoin="miter" stroke-linecap="butt" stroke-miterlimit="10"/><line x1="250" y1="231.743" x2="384.033" y2="340.357" vector-effect="non-scaling-stroke" stroke-width="1" stroke="rgb(255,255,255)" stroke-linejoin="miter" stroke-linecap="square" stroke-miterlimit="3"/><line x1="250" y1="231.743" x2="115.967" y2="340.357" vector-effect="non-scaling-stroke" stroke-width="1" stroke="rgb(255,255,255)" stroke-linejoin="miter" stroke-linecap="square" stroke-miterlimit="3"/></g></g></svg>