<?xml version="1.0" encoding="UTF-8" standalone="no"?>
<!-- Generator: Gravit.io -->
<svg xmlns="http://www.w3.org/2000/svg" xmlns:xlink="http://www.w3.org/1999/xlink" style="isolation:isolate" viewBox="0 0 500 500" width="500pt" height="500pt"><defs><clipPath id="_clipPath_cfiSxlJ6XsxdHeA45xTujXwzPwFw2AjQ"><rect width="500" height="500"/></clipPath></defs><g clip-path="url(#_clipPath_cfiSxlJ6XsxdHeA45xTujXwzPwFw2AjQ)"><g><path d=" M 385.094 246.906 L 404.721 204.777 L 359.41 91.079 L 250 44 L 140.59 91.079 L 95.279 204.777 L 114.906 246.906" fill="rgb(0,0,0)" vector-effect="non-scaling-stroke" stroke-width="1" stroke="rgb(255,255,255)" stroke-linejoin="miter" stroke-linecap="butt" stroke-miterlimit="10"/><mask id="_mask_c7IAhaCXXbpYLZkRiAvb0veJaIxYQzQv" x="-200%" y="-200%" width="400%" height="400%"><rect x="-200%" y="-200%" width="400%" height="400%" style="fill:white;"/><path d=" M 207.974 228.324 L 173.154 221.814 L 168.733 170.958 L 167.195 127.697 L 148.455 127.295 L 147.567 143.725 L 157.76 144.397 L 166.176 249.818 L 155.969 288.472 L 166.827 287.717 L 177.704 260.662 L 192.624 268.14 L 197.093 292.45 L 207.524 295.403 L 210.844 275.245 L 251.481 298.705 L 218.422 248.563 L 207.974 228.324 L 207.974 228.324 Z " fill="black" stroke="none"/></mask><path d=" M 207.974 228.324 L 173.154 221.814 L 168.733 170.958 L 167.195 127.697 L 148.455 127.295 L 147.567 143.725 L 157.76 144.397 L 166.176 249.818 L 155.969 288.472 L 166.827 287.717 L 177.704 260.662 L 192.624 268.14 L 197.093 292.45 L 207.524 295.403 L 210.844 275.245 L 251.481 298.705 L 218.422 248.563 L 207.974 228.324 L 207.974 228.324 Z " fill="none"/><path d=" M 207.974 228.324 L 173.154 221.814 L 168.733 170.958 L 167.195 127.697 L 148.455 127.295 L 147.567 143.725 L 157.76 144.397 L 166.176 249.818 L 155.969 288.472 L 166.827 287.717 L 177.704 260.662 L 192.624 268.14 L 197.093 292.45 L 207.524 295.403 L 210.844 275.245 L 251.481 298.705 L 218.422 248.563 L 207.974 228.324 L 207.974 228.324 Z " fill="none" mask="url(#_mask_c7IAhaCXXbpYLZkRiAvb0veJaIxYQzQv)" vector-effect="non-scaling-stroke" stroke-width="2" stroke="rgb(255,255,255)" stroke-linejoin="miter" stroke-linecap="butt" stroke-miterlimit="10"/><mask id="_mask_FasDxYcNlpGEhM9zaJn56ydHXqgpw9DT" x="-200%" y="-200%" width="400%" height="400%"><rect x="-200%" y="-200%" width="400%" height="400%" style="fill:white;"/><path d=" M 207.974 228.324 L 173.154 221.814 L 168.733 170.958 L 167.195 127.697 L 148.455 127.295 L 147.567 143.725 L 157.76 144.397 L 166.176 249.818 L 155.969 288.472 L 166.827 287.717 L 177.704 260.662 L 192.624 268.14 L 197.093 292.45 L 207.524 295.403 L 210.844 275.245 L 251.481 298.705 L 218.422 248.563 L 207.974 228.324 L 207.974 228.324 Z " fill="black" stroke="none"/></mask><path d=" M 207.974 228.324 L 173.154 221.814 L 168.733 170.958 L 167.195 127.697 L 148.455 127.295 L 147.567 143.725 L 157.76 144.397 L 166.176 249.818 L 155.969 288.472 L 166.827 287.717 L 177.704 260.662 L 192.624 268.14 L 197.093 292.45 L 207.524 295.403 L 210.844 275.245 L 251.481 298.705 L 218.422 248.563 L 207.974 228.324 L 207.974 228.324 Z " fill="none"/><path d=" M 207.974 228.324 L 173.154 221.814 L 168.733 170.958 L 167.195 127.697 L 148.455 127.295 L 147.567 143.725 L 157.76 144.397 L 166.176 249.818 L 155.969 288.472 L 166.827 287.717 L 177.704 260.662 L 192.624 268.14 L 197.093 292.45 L 207.524 295.403 L 210.844 275.245 L 251.481 298.705 L 218.422 248.563 L 207.974 228.324 L 207.974 228.324 Z " fill="none" mask="url(#_mask_FasDxYcNlpGEhM9zaJn56ydHXqgpw9DT)" vector-effect="non-scaling-stroke" stroke-width="2" stroke="rgb(255,255,255)" stroke-linejoin="miter" stroke-linecap="butt" stroke-miterlimit="10"/><mask id="_mask_bUFVWgWpgjNFuDaJ37JQLbOVnVvnb5QL" x="-200%" y="-200%" width="400%" height="400%"><rect x="-200%" y="-200%" width="400%" height="400%" style="fill:white;"/><path d=" M 327.974 216.324 L 293.154 209.814 L 288.733 158.958 L 287.195 115.697 L 268.455 115.295 L 267.567 131.725 L 277.76 132.397 L 286.176 237.818 L 275.969 276.472 L 286.827 275.717 L 297.704 248.662 L 312.624 256.14 L 317.093 280.45 L 327.524 283.403 L 330.844 263.245 L 371.481 286.705 L 338.422 236.563 L 327.974 216.324 L 327.974 216.324 Z " fill="black" stroke="none"/></mask><path d=" M 327.974 216.324 L 293.154 209.814 L 288.733 158.958 L 287.195 115.697 L 268.455 115.295 L 267.567 131.725 L 277.76 132.397 L 286.176 237.818 L 275.969 276.472 L 286.827 275.717 L 297.704 248.662 L 312.624 256.14 L 317.093 280.45 L 327.524 283.403 L 330.844 263.245 L 371.481 286.705 L 338.422 236.563 L 327.974 216.324 L 327.974 216.324 Z " fill="none"/><path d=" M 327.974 216.324 L 293.154 209.814 L 288.733 158.958 L 287.195 115.697 L 268.455 115.295 L 267.567 131.725 L 277.76 132.397 L 286.176 237.818 L 275.969 276.472 L 286.827 275.717 L 297.704 248.662 L 312.624 256.14 L 317.093 280.45 L 327.524 283.403 L 330.844 263.245 L 371.481 286.705 L 338.422 236.563 L 327.974 216.324 L 327.974 216.324 Z " fill="none" mask="url(#_mask_bUFVWgWpgjNFuDaJ37JQLbOVnVvnb5QL)" vector-effect="non-scaling-stroke" stroke-width="2" stroke="rgb(255,255,255)" stroke-linejoin="miter" stroke-linecap="butt" stroke-miterlimit="10"/><path d=" M 4.303 312.419 L 115.967 382.088 L 384.033 382.088 L 495.697 312.419 L 384.033 248.232 L 250 231.743 L 115.967 248.232 L 4.303 312.419 Z " fill="rgb(0,0,0)" vector-effect="non-scaling-stroke" stroke-width="1" stroke="rgb(255,255,255)" stroke-linejoin="miter" stroke-linecap="butt" stroke-miterlimit="10"/><path d=" M 4.303 312.419 L 115.967 340.357 L 384.033 340.357 L 495.697 312.419" fill="none" vector-effect="non-scaling-stroke" stroke-width="1" stroke="rgb(255,255,255)" stroke-linejoin="miter" stroke-linecap="butt" stroke-miterlimit="10"/><line x1="250" y1="231.743" x2="384.033" y2="340.357" vector-effect="non-scaling-stroke" stroke-width="1" stroke="rgb(255,255,255)" stroke-linejoin="miter" stroke-linecap="square" stroke-miterlimit="3"/><line x1="250" y1="231.743" x2="115.967" y2="340.357" vector-effect="non-scaling-stroke" stroke-width="1" stroke="rgb(255,255,255)" stroke-linejoin="miter" stroke-linecap="square" stroke-miterlimit="3"/></g><g><path d=" M 385.094 246.906 L 404.721 204.777 L 359.41 91.079 L 250 44 L 140.59 91.079 L 95.279 204.777 L 114.906 246.906" fill="rgb(0,0,0)" vector-effect="non-scaling-stroke" stroke-width="1" stroke="rgb(255,255,255)" stroke-linejoin="miter" stroke-linecap="butt" stroke-miterlimit="10"/><mask id="_mask_vBCaMx9NnA8ExnB0RFyUyVoedF4QMOuE" x="-200%" y="-200%" width="400%" height="400%"><rect x="-200%" y="-200%" width="400%" height="400%" style="fill:white;"/><path d=" M 160.474 230.138 L 195.294 223.629 L 199.715 172.772 L 201.253 129.511 L 219.993 129.11 L 220.881 145.54 L 210.688 146.211 L 202.272 251.632 L 212.479 290.286 L 201.621 289.531 L 190.745 262.477 L 175.824 269.954 L 171.355 294.264 L 160.924 297.217 L 157.604 277.059 L 116.967 300.519 L 150.026 250.377 L 160.474 230.138 L 160.474 230.138 Z " fill="black" stroke="none"/></mask><path d=" M 160.474 230.138 L 195.294 223.629 L 199.715 172.772 L 201.253 129.511 L 219.993 129.11 L 220.881 145.54 L 210.688 146.211 L 202.272 251.632 L 212.479 290.286 L 201.621 289.531 L 190.745 262.477 L 175.824 269.954 L 171.355 294.264 L 160.924 297.217 L 157.604 277.059 L 116.967 300.519 L 150.026 250.377 L 160.474 230.138 L 160.474 230.138 Z " fill="none"/><path d=" M 160.474 230.138 L 195.294 223.629 L 199.715 172.772 L 201.253 129.511 L 219.993 129.11 L 220.881 145.54 L 210.688 146.211 L 202.272 251.632 L 212.479 290.286 L 201.621 289.531 L 190.745 262.477 L 175.824 269.954 L 171.355 294.264 L 160.924 297.217 L 157.604 277.059 L 116.967 300.519 L 150.026 250.377 L 160.474 230.138 L 160.474 230.138 Z " fill="none" mask="url(#_mask_vBCaMx9NnA8ExnB0RFyUyVoedF4QMOuE)" vector-effect="non-scaling-stroke" stroke-width="2" stroke="rgb(255,255,255)" stroke-linejoin="miter" stroke-linecap="butt" stroke-miterlimit="10"/><mask id="_mask_Jq0M3U9k8vqSCZAmCMrgvmzwaYn4s6tq" x="-200%" y="-200%" width="400%" height="400%"><rect x="-200%" y="-200%" width="400%" height="400%" style="fill:white;"/><path d=" M 327.974 216.324 L 293.154 209.814 L 288.733 158.958 L 287.195 115.697 L 268.455 115.295 L 267.567 131.725 L 277.76 132.397 L 286.176 237.818 L 275.969 276.472 L 286.827 275.717 L 297.704 248.662 L 312.624 256.14 L 317.093 280.45 L 327.524 283.403 L 330.844 263.245 L 371.481 286.705 L 338.422 236.563 L 327.974 216.324 L 327.974 216.324 Z " fill="black" stroke="none"/></mask><path d=" M 327.974 216.324 L 293.154 209.814 L 288.733 158.958 L 287.195 115.697 L 268.455 115.295 L 267.567 131.725 L 277.76 132.397 L 286.176 237.818 L 275.969 276.472 L 286.827 275.717 L 297.704 248.662 L 312.624 256.14 L 317.093 280.45 L 327.524 283.403 L 330.844 263.245 L 371.481 286.705 L 338.422 236.563 L 327.974 216.324 L 327.974 216.324 Z " fill="none"/><path d=" M 327.974 216.324 L 293.154 209.814 L 288.733 158.958 L 287.195 115.697 L 268.455 115.295 L 267.567 131.725 L 277.76 132.397 L 286.176 237.818 L 275.969 276.472 L 286.827 275.717 L 297.704 248.662 L 312.624 256.14 L 317.093 280.45 L 327.524 283.403 L 330.844 263.245 L 371.481 286.705 L 338.422 236.563 L 327.974 216.324 L 327.974 216.324 Z " fill="none" mask="url(#_mask_Jq0M3U9k8vqSCZAmCMrgvmzwaYn4s6tq)" vector-effect="non-scaling-stroke" stroke-width="2" stroke="rgb(255,255,255)" stroke-linejoin="miter" stroke-linecap="butt" stroke-miterlimit="10"/><path d=" M 4.303 312.419 L 115.967 382.088 L 384.033 382.088 L 495.697 312.419 L 384.033 248.232 L 250 231.743 L 115.967 248.232 L 4.303 312.419 Z " fill="rgb(0,0,0)" vector-effect="non-scaling-stroke" stroke-width="1" stroke="rgb(255,255,255)" stroke-linejoin="miter" stroke-linecap="butt" stroke-miterlimit="10"/><path d=" M 4.303 312.419 L 115.967 340.357 L 384.033 340.357 L 495.697 312.419" fill="none" vector-effect="non-scaling-stroke" stroke-width="1" stroke="rgb(255,255,255)" stroke-linejoin="miter" stroke-linecap="butt" stroke-miterlimit="10"/><line x1="250" y1="231.743" x2="384.033" y2="340.357" vector-effect="non-scaling-stroke" stroke-width="1" stroke="rgb(255,255,255)" stroke-linejoin="miter" stroke-linecap="square" stroke-miterlimit="3"/><line x1="250" y1="231.743" x2="115.967" y2="340.357" vector-effect="non-scaling-stroke" stroke-width="1" stroke="rgb(255,255,255)" stroke-linejoin="miter" stroke-linecap="square" stroke-miterlimit="3"/></g></g></svg>