<?xml version="1.0" encoding="utf-8"?>
<!-- Generator: Adobe Illustrator 27.7.0, SVG Export Plug-In . SVG Version: 6.00 Build 0)  -->
<svg version="1.1" id="Layer_1" xmlns="http://www.w3.org/2000/svg" xmlns:xlink="http://www.w3.org/1999/xlink" x="0px" y="0px"
	 viewBox="0 0 121.2 108.2" style="enable-background:new 0 0 121.2 108.2;" xml:space="preserve">
<style type="text/css">
	.st0{fill:none;stroke:#000000;stroke-miterlimit:10;}
	.st1{fill:#FFFFFF;filter:url(#Adobe_OpacityMaskFilter);}
	
		.st2{mask:url(#_mask_DqBZ3hqgPuTlDaO1Y27g16pud6kqvbyX_00000154423709295676570460000004348956703066064058_);fill:none;stroke:#000000;stroke-width:2;stroke-miterlimit:10;}
	.st3{fill:none;}
	.st4{fill:none;stroke:#000000;stroke-linecap:square;stroke-miterlimit:3;}
</style>
<path vector-effect="non-scaling-stroke" class="st0" d="M91.1,86.5l-6.4,10.3l-24.2,6.4l-24.2-6.4L30,86.3"/>
<defs>
	<filter id="Adobe_OpacityMaskFilter" filterUnits="userSpaceOnUse" x="24.5" y="8.9" width="72.2" height="47.4">
		<feColorMatrix  type="matrix" values="1 0 0 0 0  0 1 0 0 0  0 0 1 0 0  0 0 0 1 0"/>
	</filter>
</defs>
<mask maskUnits="userSpaceOnUse" x="24.5" y="8.9" width="72.2" height="47.4" id="_mask_DqBZ3hqgPuTlDaO1Y27g16pud6kqvbyX_00000154423709295676570460000004348956703066064058_">
	<rect x="-242.3" y="-216.4" class="st1" width="484.6" height="432.8"/>
	<path d="M91.1,55.9l4.4-9.5L85.3,20.6L60.6,10L35.8,20.6L25.6,46.4l4.4,9.5"/>
</mask>
<path vector-effect="non-scaling-stroke" class="st2" d="M91.1,55.9l4.4-9.5L85.3,20.6L60.6,10L35.8,20.6L25.6,46.4l4.4,9.5"/>
<path class="st3" d="M91.1,55.9l4.4-9.5L85.3,20.6L60.6,10L35.8,20.6L25.6,46.4l4.4,9.5"/>
<path vector-effect="non-scaling-stroke" class="st0" d="M5,70.7l25.3,15.8l30.3,3.4l30.3-3.4l25.3-15.8L90.9,56.2l-30.3-4.1
	l-30.3,4.1L5,70.7z"/>
<path vector-effect="non-scaling-stroke" class="st0" d="M5,70.7L30.3,77h60.6l25.3-6.3"/>
<line vector-effect="non-scaling-stroke" class="st4" x1="60.6" y1="52.5" x2="90.9" y2="77"/>
<line vector-effect="non-scaling-stroke" class="st4" x1="60.6" y1="52.5" x2="30.3" y2="77"/>
</svg>
